<svg width="189" height="221" viewBox="0 0 189 221" fill="none" xmlns="http://www.w3.org/2000/svg">
<path fill-rule="evenodd" clip-rule="evenodd" d="M11.0885 173.698C11.1386 176.3 13.1439 178.894 17.1043 180.879L79.9222 212.365C87.9446 216.386 100.952 216.386 108.974 212.365L171.792 180.879C176.062 178.739 178.059 175.891 177.784 173.089V132.858H103.471C97.794 131.467 91.1024 131.467 85.4249 132.858H11.0873V173.698H11.0885Z" fill="url(#paint0_linear_1_4)"/>
<path d="M81.3748 94.8579L18.5569 126.344C11.3367 129.963 11.3367 135.831 18.5569 139.45L81.3748 170.936C88.595 174.555 100.301 174.555 107.521 170.936L170.339 139.45C177.559 135.831 177.559 129.963 170.339 126.344L107.521 94.8579C100.301 91.239 88.595 91.239 81.3748 94.8579Z" fill="#2A2043" stroke="#2A2043" stroke-width="12.5971"/>
<g filter="url(#filter0_d_1_4)">
<path d="M85.95 107.995L46.6187 127.709C41.5958 130.227 41.5958 134.309 46.6187 136.826L85.95 156.54C90.973 159.058 99.1169 159.058 104.14 156.54L143.471 136.826C148.494 134.309 148.494 130.227 143.471 127.709L104.14 107.995C99.1169 105.477 90.973 105.477 85.95 107.995Z" fill="#261D3C"/>
</g>
<path d="M98.7606 122.157C98.3104 121.897 97.8925 121.729 97.5065 121.655C97.1421 121.593 96.6811 121.661 96.1239 121.86C95.5879 122.071 94.827 122.461 93.8407 123.032L90.6896 124.856C89.875 125.327 89.0389 125.662 88.1815 125.861C87.367 126.059 86.6167 126.171 85.9305 126.196C85.2447 126.221 84.6658 126.208 84.1942 126.159C84.2587 126.394 84.2693 126.711 84.2265 127.108C84.2265 127.505 84.0978 127.927 83.8405 128.373C83.6048 128.808 83.176 129.205 82.5543 129.564L78.6957 131.798C77.7311 132.356 77.0666 132.79 76.702 133.1C76.3591 133.423 76.2413 133.69 76.3483 133.901C76.4769 134.124 76.7665 134.366 77.2167 134.626L78.4064 135.315L74.4833 137.586L71.943 136.115C71.343 135.768 70.7533 135.414 70.1747 135.055C69.6172 134.707 69.1993 134.329 68.9206 133.919C68.6204 133.522 68.599 133.076 68.8563 132.579C69.1134 132.108 69.7565 131.574 70.7855 130.979L76.0912 127.908C77.0558 127.35 77.6989 126.729 78.0204 126.047C78.3633 125.352 78.1063 124.744 77.2487 124.223L80.9786 122.064C81.879 122.561 82.9187 122.716 84.0978 122.53C85.2769 122.344 86.3593 121.965 87.3453 121.394L92.4259 118.454C93.455 117.858 94.3768 117.486 95.1913 117.337C96.0058 117.188 96.7561 117.188 97.4423 117.337C98.1495 117.499 98.8143 117.747 99.4359 118.082C100.079 118.404 100.711 118.745 101.333 119.105L103.873 120.576L99.9503 122.846L98.7606 122.157ZM111.705 142.416C109.518 143.682 107.203 144.712 104.759 145.506C102.337 146.312 99.9792 146.908 97.6854 147.292C95.3702 147.689 93.2693 147.9 91.3829 147.925L89.3893 144.798C92.1118 144.687 94.9842 144.24 98.007 143.458C101.051 142.664 104.052 141.411 107.01 139.699C109.969 137.987 112.123 136.256 113.473 134.507C114.845 132.745 115.617 131.082 115.789 129.519L121.223 130.654C121.18 131.746 120.816 132.962 120.13 134.302C119.444 135.642 118.404 137.013 117.011 138.415C115.66 139.817 113.891 141.151 111.705 142.416Z" fill="#5C566D"/>
<g filter="url(#filter1_d_1_4)">
<path d="M85.95 107.995L46.6187 127.709C41.5958 130.227 41.5958 134.309 46.6187 136.826L85.95 156.54C90.973 159.058 99.1169 159.058 104.14 156.54L143.471 136.826C148.494 134.309 148.494 130.227 143.471 127.709L104.14 107.995C99.1169 105.477 90.973 105.477 85.95 107.995Z" fill="url(#paint1_linear_1_4)"/>
</g>
<path fill-rule="evenodd" clip-rule="evenodd" d="M147.147 32.0551C147.282 30.5898 146.448 28.1639 142.031 26.2755L105.977 8.44845C102.377 6.1692 92.8712 2.97825 83.6466 8.44845L48.08 26.2755C46.3749 26.9811 42.9156 29.027 42.7207 31.5666V126.807H42.7341V132.253C42.5987 133.229 43.4324 135.655 47.8497 137.544L83.9036 155.371C87.5034 157.65 97.0096 160.841 106.234 155.371L141.801 137.544C143.506 136.838 146.965 134.792 147.16 132.253V125.903H147.147V32.0551Z" fill="url(#paint2_linear_1_4)"/>
<path d="M98.7606 122.157C98.3104 121.897 97.8925 121.729 97.5065 121.655C97.1421 121.593 96.6811 121.661 96.1239 121.86C95.5879 122.071 94.827 122.461 93.8407 123.032L90.6896 124.856C89.875 125.327 89.0389 125.662 88.1815 125.861C87.367 126.059 86.6167 126.171 85.9305 126.196C85.2447 126.221 84.6658 126.208 84.1942 126.159C84.2587 126.394 84.2693 126.711 84.2265 127.108C84.2265 127.505 84.0978 127.927 83.8405 128.373C83.6048 128.808 83.176 129.205 82.5543 129.564L78.6957 131.798C77.7311 132.356 77.0666 132.79 76.702 133.1C76.3591 133.423 76.2413 133.69 76.3483 133.901C76.4769 134.124 76.7665 134.366 77.2167 134.626L78.4064 135.315L74.4833 137.586L71.943 136.115C71.343 135.768 70.7533 135.414 70.1747 135.055C69.6172 134.707 69.1993 134.329 68.9206 133.919C68.6204 133.522 68.599 133.076 68.8563 132.579C69.1134 132.108 69.7565 131.574 70.7855 130.979L76.0912 127.908C77.0558 127.35 77.6989 126.729 78.0204 126.047C78.3633 125.352 78.1063 124.744 77.2487 124.223L80.9786 122.064C81.879 122.561 82.9187 122.716 84.0978 122.53C85.2769 122.344 86.3593 121.965 87.3453 121.394L92.4259 118.454C93.455 117.858 94.3768 117.486 95.1913 117.337C96.0058 117.188 96.7561 117.188 97.4423 117.337C98.1495 117.499 98.8143 117.747 99.4359 118.082C100.079 118.404 100.711 118.745 101.333 119.105L103.873 120.576L99.9503 122.846L98.7606 122.157ZM111.705 142.416C109.518 143.682 107.203 144.712 104.759 145.506C102.337 146.312 99.9792 146.908 97.6854 147.292C95.3702 147.689 93.2693 147.9 91.3829 147.925L89.3893 144.798C92.1118 144.687 94.9842 144.24 98.007 143.458C101.051 142.664 104.052 141.411 107.01 139.699C109.969 137.987 112.123 136.256 113.473 134.507C114.845 132.745 115.617 131.082 115.789 129.519L121.223 130.654C121.18 131.746 120.816 132.962 120.13 134.302C119.444 135.642 118.404 137.013 117.011 138.415C115.66 139.817 113.891 141.151 111.705 142.416Z" fill="#FAFAFA"/>
<defs>
<filter id="filter0_d_1_4" x="42.8515" y="106.107" width="104.387" height="68.0683" filterUnits="userSpaceOnUse" color-interpolation-filters="sRGB">
<feFlood flood-opacity="0" result="BackgroundImageFix"/>
<feColorMatrix in="SourceAlpha" type="matrix" values="0 0 0 0 0 0 0 0 0 0 0 0 0 0 0 0 0 0 127 0" result="hardAlpha"/>
<feOffset dy="15.7463"/>
<feComposite in2="hardAlpha" operator="out"/>
<feColorMatrix type="matrix" values="0 0 0 0 1 0 0 0 0 1 0 0 0 0 1 0 0 0 0.25 0"/>
<feBlend mode="normal" in2="BackgroundImageFix" result="effect1_dropShadow_1_4"/>
<feBlend mode="normal" in="SourceGraphic" in2="effect1_dropShadow_1_4" result="shape"/>
</filter>
<filter id="filter1_d_1_4" x="42.8515" y="106.107" width="104.387" height="68.0683" filterUnits="userSpaceOnUse" color-interpolation-filters="sRGB">
<feFlood flood-opacity="0" result="BackgroundImageFix"/>
<feColorMatrix in="SourceAlpha" type="matrix" values="0 0 0 0 0 0 0 0 0 0 0 0 0 0 0 0 0 0 127 0" result="hardAlpha"/>
<feOffset dy="15.7463"/>
<feComposite in2="hardAlpha" operator="out"/>
<feColorMatrix type="matrix" values="0 0 0 0 1 0 0 0 0 1 0 0 0 0 1 0 0 0 0.25 0"/>
<feBlend mode="normal" in2="BackgroundImageFix" result="effect1_dropShadow_1_4"/>
<feBlend mode="normal" in="SourceGraphic" in2="effect1_dropShadow_1_4" result="shape"/>
</filter>
<linearGradient id="paint0_linear_1_4" x1="11.0873" y1="131.825" x2="178.076" y2="214.985" gradientUnits="userSpaceOnUse">
<stop stop-color="#2A2042"/>
<stop offset="1" stop-color="#120B23"/>
</linearGradient>
<linearGradient id="paint1_linear_1_4" x1="95.015" y1="161.069" x2="120.821" y2="126.746" gradientUnits="userSpaceOnUse">
<stop stop-color="#6513F2"/>
<stop offset="1" stop-color="#02D1FF"/>
</linearGradient>
<linearGradient id="paint2_linear_1_4" x1="95.0149" y1="29.0347" x2="94.94" y2="158.391" gradientUnits="userSpaceOnUse">
<stop stop-color="#02D1FF" stop-opacity="0"/>
<stop offset="1" stop-color="#02D1FF" stop-opacity="0.15"/>
</linearGradient>
</defs>
</svg>
