<svg width="300" height="84" viewBox="0 0 300 84" fill="none" xmlns="http://www.w3.org/2000/svg">
<g clip-path="url(#clip0_110528_1354)">
<path d="M6.79191 37.0181L222.941 37.0081L216.581 0.150135H0.149902L6.79191 37.0181Z" fill="#231F20"/>
<path d="M108.693 7.62206H123.218V9.58712H110.963V14.845H122.754V16.7934H110.963V23.9731H108.693V7.62206Z" fill="white"/>
<path d="M108.693 7.62206H123.218V9.58712H110.963V14.845H122.754V16.7934H110.963V23.9731H108.693V7.62206Z" stroke="white" stroke-width="2" stroke-miterlimit="10"/>
<path d="M127.069 15.8638C127.069 17.1385 127.398 18.7815 128.507 20.0329C130.037 21.8187 132.414 22.393 134.78 22.393C140.831 22.393 142.282 18.5757 142.282 15.7941C142.282 11.4889 138.836 9.10233 134.365 9.2185C130.96 9.30813 127.069 11.0209 127.069 15.8638ZM144.625 16.0265C144.625 21.6096 140.041 24.4111 134.78 24.4111C132.394 24.4111 129.987 23.973 128.072 22.6087C126.469 21.4901 124.756 19.4554 124.756 16.0032C124.756 9.95872 129.735 7.22358 134.618 7.22358C140.343 7.25013 144.625 10.6093 144.625 16.0265" fill="white"/>
<path d="M127.069 15.8638C127.069 17.1385 127.398 18.7815 128.507 20.0329C130.037 21.8187 132.414 22.393 134.78 22.393C140.831 22.393 142.282 18.5757 142.282 15.7941C142.282 11.4889 138.836 9.10233 134.365 9.2185C130.96 9.30813 127.069 11.0209 127.069 15.8638ZM144.625 16.0265C144.625 21.6096 140.041 24.4111 134.78 24.4111C132.394 24.4111 129.987 23.973 128.072 22.6087C126.469 21.4901 124.756 19.4554 124.756 16.0032C124.756 9.95872 129.735 7.22358 134.618 7.22358C140.343 7.25013 144.625 10.6093 144.625 16.0265V16.0265Z" stroke="white" stroke-width="2" stroke-miterlimit="10"/>
<path d="M149.186 9.58809V15.5164H157.272C158.54 15.5164 160.17 15.4965 161.089 14.265C161.511 13.734 161.644 13.1099 161.644 12.529C161.644 11.905 161.488 11.281 161.159 10.7897C160.422 9.60801 159.234 9.60801 158.168 9.58809H149.186ZM146.893 7.62304H158.009C159.45 7.63964 161.179 7.66287 162.6 8.94082C163.127 9.39889 164.054 10.471 164.054 12.4361C164.054 16.3529 160.738 16.884 159.649 17.0666L165.68 23.9741H162.646L157.11 17.4383H149.209V23.9741H146.893V7.62304V7.62304Z" fill="white"/>
<path d="M149.186 9.58809V15.5164H157.272C158.54 15.5164 160.17 15.4965 161.089 14.265C161.511 13.734 161.644 13.1099 161.644 12.529C161.644 11.905 161.488 11.281 161.159 10.7897C160.422 9.60801 159.234 9.60801 158.168 9.58809H149.186ZM146.893 7.62304H158.009C159.45 7.63964 161.179 7.66287 162.6 8.94082C163.127 9.39889 164.054 10.471 164.054 12.4361C164.054 16.3529 160.738 16.884 159.649 17.0666L165.68 23.9741H162.646L157.11 17.4383H149.209V23.9741H146.893V7.62304V7.62304Z" stroke="white" stroke-width="2" stroke-miterlimit="10"/>
<path d="M168.318 7.62206H183.444V9.56388L170.612 21.9351H183.677V23.9731H167.342V22.0512L180.148 9.63359H168.318V7.62206Z" fill="white"/>
<path d="M168.318 7.62206H183.444V9.56388L170.612 21.9351H183.677V23.9731H167.342V22.0512L180.148 9.63359H168.318V7.62206Z" stroke="white" stroke-width="2" stroke-miterlimit="10"/>
<path d="M195.155 11.162C195.045 10.8864 194.913 10.6076 194.79 10.3321C194.717 10.123 194.654 9.91056 194.604 9.70476C194.531 9.91056 194.465 10.1429 194.375 10.3753C194.255 10.6773 194.116 10.9528 193.98 11.2582L190.528 18.0396H198.61L195.155 11.162ZM193.422 7.59698H195.879L204.263 23.9746H201.595L199.61 19.9383H189.555L187.564 23.9746H184.975L193.422 7.59698V7.59698Z" fill="white"/>
<path d="M195.155 11.162C195.045 10.8864 194.913 10.6076 194.79 10.3321C194.717 10.123 194.654 9.91056 194.604 9.70476C194.531 9.91056 194.465 10.1429 194.375 10.3753C194.255 10.6773 194.116 10.9528 193.98 11.2582L190.528 18.0396H198.61L195.155 11.162ZM193.422 7.59698H195.879L204.263 23.9746H201.595L199.61 19.9383H189.555L187.564 23.9746H184.975L193.422 7.59698V7.59698Z" stroke="white" stroke-width="2" stroke-miterlimit="10"/>
<path d="M86.3132 31.918H85.1382V6.90339H86.3132V31.918Z" fill="white"/>
<path d="M22.5229 31.9663L33.2112 31.9564L39.8034 21.839L31.0072 19.3495C28.3683 23.273 22.5229 31.9663 22.5229 31.9663Z" fill="white"/>
<path d="M38.5203 27.8022H44.6544L52.2159 16.1016H26.7831C26.6702 16.1016 26.6403 16.1547 26.6304 16.1779C26.637 16.1812 26.6503 16.1845 26.6702 16.1912C27.2876 16.3903 43.247 20.43 43.247 20.43L38.5203 27.8022Z" fill="white"/>
<path d="M47.2236 27.8022H53.0756L60.647 16.1016H54.9278L47.2236 27.8022Z" fill="white"/>
<path d="M55.7163 27.8267H55.7362C57.137 27.8267 59.7925 27.6507 61.867 26.4624C63.686 25.4069 66.8195 20.4743 69.1995 16.1027H63.072L55.7163 27.8267Z" fill="white"/>
<path d="M34.4814 13.877C34.4814 13.877 64.8933 13.8736 66.4766 13.8736C70.4697 13.8736 73.6961 8.87803 74.7882 6.94949L47.0053 6.94617C38.9626 6.94617 35.5204 11.9318 34.4814 13.877Z" fill="white"/>
<path d="M290.203 81.9037L91.3716 81.917L98.8235 32.2596L297.954 32.253L290.203 81.9037Z" fill="#EA0C80"/>
<path d="M290.203 81.9037L91.3716 81.917L98.8235 32.2596L297.954 32.253L290.203 81.9037Z" stroke="#EC008C" stroke-width="11.0732" stroke-miterlimit="10"/>
<path d="M116.813 76.1045L119.283 60.5235H114.344L111.877 76.1045H101.491L107.572 37.7163H117.958L115.778 51.4617H120.72L122.898 37.7163H133.284L127.203 76.1045H116.813Z" fill="white"/>
<path d="M144.464 67.0946C148.384 67.0946 149.771 59.3041 150.15 56.9109C150.528 54.521 151.61 46.7271 147.69 46.7271C143.77 46.7271 142.382 54.5176 142.004 56.9109C141.629 59.3041 140.544 67.0946 144.464 67.0946ZM149.227 37.0546C159.759 37.0546 162.226 47.5437 160.738 56.9142C159.255 66.2814 153.469 76.7705 142.93 76.7705C132.388 76.7672 129.928 66.2781 131.409 56.9109C132.902 47.5437 138.681 37.0546 149.227 37.0546" fill="white"/>
<path d="M173.184 55.4868C175.932 55.4868 177.791 53.0969 178.186 50.6007C178.717 47.2415 176.908 45.8142 174.03 45.9669L172.533 55.437L173.184 55.4868ZM174.959 76.1065L171.733 60.1206L171.617 60.2235C171.371 62.1056 171.179 63.9909 170.88 65.873L169.25 76.1065H158.867L164.955 37.7184H174.979C183.991 37.7184 190.089 40.3672 188.479 50.5011C187.815 54.7267 185.385 58.4941 180.997 60.1206L186.212 76.1099L174.959 76.1065V76.1065Z" fill="white"/>
<path d="M187.33 76.1094L193.411 37.7212H203.797L197.719 76.1094H187.33Z" fill="white"/>
<path d="M198.529 76.1095L212.879 51.7223C213.861 50.0427 215.322 48.2104 216.666 46.481C214.615 46.5806 212.291 46.7864 210.051 46.7864H205.467L206.897 37.7213L232.314 37.7246L216.792 63.9939C216.092 65.2154 215.302 66.3373 214.608 67.5057C216.517 67.353 218.498 67.051 220.483 67.051H226.389L224.955 76.1128L198.529 76.1095Z" fill="white"/>
<path d="M240.536 67.101C244.463 67.101 245.844 59.3105 246.222 56.9172C246.601 54.524 247.683 46.7368 243.763 46.7368C239.839 46.7335 238.455 54.524 238.077 56.9172C237.702 59.3105 236.61 67.101 240.536 67.101ZM245.3 37.0609C255.832 37.0643 258.298 47.5501 256.811 56.9206C255.327 66.2877 249.545 76.7769 239.003 76.7769C228.461 76.7735 226.001 66.2844 227.482 56.9172C228.969 47.5501 234.754 37.0609 245.3 37.0609Z" fill="white"/>
<path d="M261.023 37.7247H270.901L275.538 60.8406L275.655 60.741C275.95 56.3097 275.887 51.9315 276.584 47.5035L278.127 37.7247L288.109 37.728L282.028 76.1162H272.046L267.818 53.9696L267.705 54.0691C267.379 57.6839 267.277 61.2489 266.702 64.8636L264.92 76.1129H254.942L261.023 37.7247Z" fill="white"/>
</g>
<defs>
<clipPath id="clip0_110528_1354">
<rect width="300" height="83.7132" fill="white"/>
</clipPath>
</defs>
</svg>
