<svg width="300" height="50" viewBox="0 0 300 50" fill="none" xmlns="http://www.w3.org/2000/svg">
<g clip-path="url(#clip0_110528_1339)">
<path d="M299.611 36.8927L298.69 33.7261L297.826 30.8312C297.826 30.8312 295.095 21.9266 294.737 20.7539C294.298 19.32 293.866 17.8842 293.44 16.4465L293.372 16.2037L299.426 8.92948L296.579 0.000976562L266.08 0.0299457L265.148 1.51337L264.784 0.0319436L234.078 0.0639096L233.325 1.74912L233.028 0.0619117L202.081 0.0968745L201.536 2.11872L201.33 0.0968745L170.066 0.126843L169.766 3.43332L169.669 0.126843L138.247 0.159808L138.143 3.18259L137.817 0.155812L106.662 0.189776L106.454 2.1387L105.896 0.191774L90.8731 0.20476L89.6744 8.58484L88.9901 6.85568L88.6595 6.82671L86.0332 0.209754L71.201 0.22374L70.9003 1.83103L70.1192 0.224738L55.4328 0.238724L55.0992 1.73913L54.2341 0.238724L39.6736 0.254707L37.9794 6.77976L34.0346 6.78376L33.2784 9.63473L26.4197 0.266694L12.2498 0.281678L0.139648 37.8977L13.0139 49.8H27.041L29.2687 41.4159L30.3565 42.6256H34.1095L40.3579 49.797L54.7715 49.793L55.0562 48.4364L56.0761 49.795L70.6017 49.793L70.8614 48.3256L71.7894 49.793L86.4528 49.791L87.5856 41.9284L91.3686 49.791L106.228 49.788L106.415 47.9889L107.062 49.788L137.971 49.785L138.081 46.926L138.422 49.786L169.578 49.781L169.879 46.6563L169.984 49.781L185.269 49.778L185.747 47.5823L185.892 49.778L200.991 49.775L201.631 47.889L201.819 49.775H216.754L217.523 48.0958L217.746 49.775H232.539L233.427 48.2426L233.677 49.774L248.342 49.768L256.819 37.6829L256.413 35.7469L261.111 35.7439L267.744 26.5567L273.454 49.766L287.848 49.764L299.861 37.7978L299.611 36.8927ZM154.007 27.7075L154.163 22.572L168.877 22.563L169.006 20.8568L169.238 27.7025L154.007 27.7075V27.7075Z" fill="#020303"/>
<path d="M27.0675 8.79868L25.1096 15.6274H33.7984L35.6234 8.88359L39.5952 8.8806L41.2864 2.34055L52.7372 2.32857L44.6658 37.0277L32.3209 37.0317L36.02 22.2973L31.5637 22.2923L29.6358 29.4697L21.6393 29.4727L23.6332 22.2883L19.117 22.3003L14.7626 37.0366L2.64453 37.0436L13.7697 2.36753L25.0087 2.35654L23.1447 8.65384L27.0675 8.79868ZM68.5274 2.39849L61.7047 37.1076L49.3568 37.1126L57.0776 2.40848L68.5274 2.39849ZM85.2266 25.8515L86.2495 18.6762L81.7773 18.5923L78.8204 37.0177L66.4566 37.0197L72.9337 2.30959L84.3955 2.2986L83.3916 8.72476L87.3154 8.82466L86.3854 15.5375L90.7977 15.5995L92.6807 2.28861L104.15 2.27862L100.132 37.0097L87.7549 37.0147L89.3043 25.9524L85.2266 25.8515ZM134.663 29.8483L134.35 36.9987L104.861 37.0077L108.532 2.27462L135.87 2.24665L135.599 8.39611L119.517 8.4111L119.011 15.4966L135.288 15.5405L134.995 22.2534L118.41 22.2644L117.853 29.7844L134.663 29.8483ZM295.042 2.09082L297.005 8.25626L289.022 8.26226L289.073 8.45305C289.402 9.80162 289.76 11.1732 290.142 12.5737C290.53 13.9792 290.938 15.4077 291.359 16.8551C291.787 18.3076 292.221 19.781 292.673 21.2544C293.124 22.7369 293.583 24.2303 294.039 25.7217C294.316 26.6277 294.594 27.5407 294.874 28.4668C295.161 29.3938 295.448 30.3268 295.729 31.2658C296.015 32.2078 296.296 33.1548 296.578 34.1008C296.856 35.0488 297.136 35.9968 297.401 36.9447L284.941 36.9487L277.108 8.27524L269.119 8.28223L267.545 2.11779L295.042 2.09082V2.09082ZM266.356 15.2768L268.056 22.1735L251.385 22.1824L254.472 36.9587L242.035 36.9617L235.666 2.14876L263.133 2.12179L264.647 8.28523L248.479 8.29922L249.938 15.2698L266.356 15.2768ZM218.564 25.7377L220.099 36.9707L207.673 36.9737L203.827 2.18072L231.261 2.15375L237.279 36.9677L224.85 36.9707L223.231 25.7536L218.564 25.7377V25.7377ZM226.619 12.0732L225.921 7.6539L220.489 7.6599L220.988 11.7096L216.725 11.6756L216.175 7.66289L210.92 7.66989L211.473 12.0852L216.297 12.0832L216.52 13.7075L214.094 13.7095L214.98 20.5162L217.891 20.5132L217.673 18.1987L221.988 18.1817L222.349 20.5092L225.298 20.5072L224.265 13.7324L221.859 13.7185L221.65 12.0742L226.619 12.0732V12.0732ZM197.014 18.9589L201.114 18.9559L202.928 36.9737L190.518 36.9807L189.41 22.3123L184.815 22.1994L185.769 36.9807L173.358 36.9877L172.025 2.21269L199.428 2.18672L200.727 15.09L196.636 15.086L197.014 18.9589V18.9589ZM188.919 15.5065L188.381 8.35216L183.921 8.35316L184.381 15.5085L188.919 15.5065V15.5065ZM151.911 8.38213L167.808 8.36914L167.631 2.21569L140.258 2.24466L139.088 36.9957L168.62 36.9877L168.415 29.8423L151.53 29.8483L151.911 8.38213Z" fill="#A9A09D"/>
<path d="M4.26376 37.0418C3.3737 37.0418 3.16992 37.5463 3.81324 38.1626L12.5959 46.5807C13.2372 47.195 14.4929 47.7015 15.3839 47.7015H23.1157C24.0067 47.7015 24.2365 47.168 23.6301 46.5147L15.8684 38.2196C15.262 37.5703 14.0344 37.0368 13.1433 37.0368L4.26376 37.0418V37.0418ZM33.9412 37.0328C33.0501 37.0328 32.7874 37.5932 33.3598 38.2745L40.2175 46.4568C40.7889 47.1421 41.9856 47.6995 42.8767 47.6995H50.984C51.8751 47.6995 52.1688 47.1151 51.6373 46.3989L45.6327 38.3284C45.1003 37.6122 43.9365 37.0268 43.0455 37.0278L33.9412 37.0328V37.0328Z" fill="#282729"/>
<path d="M23.2571 29.4717C22.3671 29.4717 22.1204 30.0161 22.7117 30.6854L30.3426 39.2992C30.934 39.9665 32.0118 40.484 32.7411 40.447C33.4673 40.4141 33.6441 39.7887 33.1316 39.0585L32.6002 38.3053C32.0868 37.5771 31.861 36.2785 32.0997 35.4184L32.2476 34.8809C32.4873 34.0239 32.2276 32.7482 31.6752 32.05L30.6383 30.7404C30.0859 30.0411 28.9051 29.4707 28.0151 29.4707H23.2571V29.4717ZM50.9757 37.1126C50.0836 37.1136 49.7889 37.7029 50.3164 38.4202L56.1821 46.3947C56.7066 47.1139 57.8683 47.7013 58.7604 47.7013H66.7459C67.6359 47.7013 67.9776 47.085 67.5021 46.3298L62.5643 38.4811C62.0898 37.7259 60.974 37.1086 60.083 37.1106L50.9757 37.1126V37.1126ZM68.0755 37.0197C67.1854 37.0197 66.8358 37.642 67.3013 38.4022L72.0602 46.1929C72.5257 46.9531 73.6315 47.5754 74.5236 47.5754H82.3812C83.2733 47.5754 83.6819 46.9211 83.2873 46.121L79.5363 38.4711C79.1427 37.671 78.0938 37.0177 77.2028 37.0177L68.0755 37.0197V37.0197ZM89.3748 37.0137C88.4848 37.0137 88.0622 37.675 88.4368 38.4831L92.019 46.2299C92.3946 47.04 93.4285 47.7003 94.3195 47.7003H102.431C103.322 47.7003 103.8 47.015 103.492 46.1799L100.688 38.5291C100.38 37.693 99.4021 37.0097 98.5101 37.0097L89.3748 37.0137ZM106.48 37.0087C105.59 37.0087 105.106 37.6959 105.406 38.5311L108.049 45.9202C108.348 46.7613 109.323 47.4466 110.214 47.4466H134.208C135.1 47.4466 135.726 46.7223 135.602 45.8433L134.577 38.6C134.453 37.7169 133.62 36.9977 132.732 36.9977L106.48 37.0087V37.0087ZM140.707 36.9957C139.817 36.9957 139.166 37.7199 139.262 38.606L140.069 46.089C140.165 46.9761 140.971 47.6993 141.862 47.6993H165.733C166.625 47.6993 167.439 46.9741 167.543 46.091L168.429 38.596C168.534 37.7099 167.888 36.9867 166.998 36.9877L140.707 36.9957V36.9957ZM174.979 36.9857C174.088 36.9857 173.268 37.7109 173.155 38.594L172.221 45.9671C172.109 46.8522 172.744 47.5744 173.636 47.5744H181.625C182.516 47.5744 183.415 46.8652 183.62 45.9991L185.393 38.556C185.595 37.689 185.039 36.9807 184.148 36.9817L174.979 36.9857V36.9857ZM192.136 36.9797C191.245 36.9797 190.349 37.69 190.143 38.557L188.407 45.8732C188.202 46.7403 188.761 47.4496 189.653 47.4496H197.641C198.533 47.4496 199.502 46.7623 199.796 45.9212L202.397 38.5031C202.688 37.663 202.203 36.9747 201.312 36.9757L192.136 36.9797V36.9797ZM209.291 36.9727C208.397 36.9727 207.426 37.66 207.13 38.5001L204.464 46.0491C204.168 46.8882 204.653 47.5754 205.543 47.5754H213.523C214.415 47.5754 215.453 46.9141 215.831 46.105L219.413 38.4362C219.79 37.628 219.37 36.9677 218.48 36.9677L209.291 36.9727V36.9727ZM226.469 36.9677C225.577 36.9687 224.53 37.623 224.139 38.4242L220.393 46.118C220.004 46.9201 220.414 47.5744 221.304 47.5744H229.54C230.432 47.5744 231.524 46.9441 231.969 46.1729L236.468 38.3692C236.915 37.5991 236.55 36.9677 235.657 36.9677H226.469V36.9677ZM243.656 36.9607C242.766 36.9607 241.656 37.5841 241.193 38.3453L236.417 46.1909C235.953 46.9521 236.302 47.5754 237.192 47.5754H245.3C246.192 47.5754 247.344 46.9811 247.859 46.2558L253.535 38.2793C254.051 37.5531 253.746 36.9597 252.852 36.9597L243.656 36.9607V36.9607ZM286.562 36.9477C285.671 36.9477 284.46 37.4932 283.871 38.1625L276.743 46.2339C276.153 46.9032 276.4 47.4486 277.292 47.4486H285.02C285.914 47.4486 287.162 46.9381 287.801 46.3188L296.246 38.0735C296.882 37.4522 296.675 36.9438 295.783 36.9448L286.562 36.9477V36.9477Z" fill="#282729"/>
<path d="M11.7244 8.13737C11.6415 8.36313 12.3018 8.54993 13.1918 8.55193L21.6838 8.58689C22.5748 8.59089 23.3121 8.39809 23.326 8.16135C23.338 7.9226 22.6188 7.72681 21.7277 7.72681H13.4945C12.6024 7.72681 11.8063 7.91161 11.7244 8.13737V8.13737ZM11.135 25.7846C11.4117 24.9385 10.9112 24.2452 10.0212 24.2452H7.9464C7.05535 24.2452 6.32812 24.416 6.32812 24.6228C6.32812 24.8306 7.05635 25.0024 7.9464 25.0024H8.97331C9.86336 25.0024 10.3658 25.6937 10.0871 26.5408L8.19913 32.2877C7.92243 33.1368 8.42389 33.828 9.31495 33.828H15.6772C16.5692 33.828 17.2975 33.6572 17.2975 33.4494C17.2975 33.2417 16.5692 33.0718 15.6772 33.0718H10.3608C9.46878 33.0718 8.96732 32.3786 9.24702 31.5315L9.39786 31.079C9.67556 30.2319 10.6325 29.5396 11.5226 29.5396H16.4334C17.3254 29.5396 18.0546 29.3698 18.0546 29.163C18.0546 28.9532 17.3254 28.7844 16.4334 28.7844H11.7703C10.8803 28.7844 10.3788 28.0941 10.6565 27.245L11.135 25.7846ZM44.999 9.62479C45.1199 8.74373 44.4875 8.0205 43.5985 8.0205L41.1371 8.02349C40.246 8.02449 39.4539 8.19531 39.374 8.40209C39.2941 8.60587 39.9603 8.77669 40.8514 8.77669H42.7344C43.6254 8.77669 44.2568 9.49892 44.1359 10.381L43.7903 12.9303C43.6704 13.8133 42.8433 14.5346 41.9542 14.5346H34.1735C33.2824 14.5346 32.5542 14.7054 32.5542 14.9122C32.5542 15.1199 33.2824 15.2908 34.1735 15.2908H49.4682C50.3593 15.2908 51.0875 15.1199 51.0875 14.9122C51.0875 14.7054 50.3593 14.5346 49.4682 14.5346H45.953C45.0629 14.5346 44.4296 13.8123 44.5515 12.9303L44.999 9.62479ZM55.6856 32.7871C55.8454 31.9101 55.7425 31.5674 55.4569 32.0229C55.1702 32.4765 54.8025 33.5653 54.6377 34.4434L54.397 35.728C54.2322 36.6021 54.5069 37.9227 55.0073 38.6619L55.4149 39.2612C55.9164 39.9985 56.7155 40.8895 57.192 41.2431C57.6675 41.5968 57.6525 41.2801 57.157 40.5399L55.7905 38.4961C55.295 37.7548 55.0203 36.4333 55.1811 35.5562L55.6856 32.7871V32.7871ZM67.8597 9.36606C67.8597 9.15829 67.1324 9.00145 66.2424 9.01843L63.0498 9.08137C62.1587 9.10035 61.7991 9.25518 62.2496 9.428C62.7001 9.60181 63.798 9.74466 64.688 9.74466H66.2414C67.1324 9.74466 67.8597 9.57384 67.8597 9.36606V9.36606ZM72.5527 34.6232C72.7475 33.7531 72.6496 33.4265 72.3389 33.895C72.0302 34.3665 71.6586 35.2585 71.5128 35.8778C71.3669 36.4992 71.4838 37.627 71.7735 38.3832C72.0622 39.1414 72.5617 40.1004 72.8823 40.5139C73.205 40.9265 73.2399 40.5748 72.9592 39.7277L72.5477 38.4931C72.267 37.646 72.194 36.2415 72.3858 35.3734L72.5527 34.6232V34.6232ZM69.4999 25.8415C68.6089 25.7966 67.8726 25.9284 67.8597 26.1372C67.8507 26.345 68.5709 26.5508 69.461 26.5967L78.5143 27.0552C79.4024 27.0992 80.3634 27.4968 80.6471 27.9383C80.9308 28.3758 81.3054 28.6455 81.4792 28.5337C81.655 28.4218 81.5201 27.8933 81.1775 27.3639C80.8368 26.8345 79.8259 26.363 78.9409 26.318L69.4999 25.8415V25.8415ZM79.0837 8.16135C79.4293 8.40209 80.4413 8.59888 81.3323 8.59888H82.0206C82.9106 8.59888 83.6409 8.42906 83.6409 8.21929C83.6409 8.0135 82.9116 7.8247 82.0206 7.80473L80.0717 7.76277C79.1816 7.74079 78.7371 7.9216 79.0837 8.16135ZM89.8922 26.0693C89.0032 26.1072 88.2799 26.309 88.2889 26.5158C88.2969 26.7236 89.0331 26.8624 89.9212 26.8245L95.1806 26.6017C96.0706 26.5638 96.69 27.253 96.5561 28.1351L95.4563 35.4063C95.3204 36.2854 95.4213 37.7049 95.6801 38.558L95.9088 39.3202C96.1675 40.1733 96.68 41.3001 97.0536 41.8255C97.4272 42.35 97.5211 42.0822 97.2664 41.2282L96.4532 38.504C96.1995 37.65 96.0996 36.2305 96.2315 35.3514L97.4402 27.3389C97.573 26.4579 96.9547 25.7676 96.0636 25.8066L89.8922 26.0693V26.0693ZM91.6943 7.97854C91.6583 8.18332 92.3476 8.47302 93.2277 8.62186L102.191 9.67474C103.074 9.78462 103.797 9.70271 103.797 9.49493C103.797 9.28515 103.074 9.02343 102.191 8.91355L93.3555 7.87665C92.4755 7.72681 91.7273 7.77376 91.6943 7.97854V7.97854ZM111.199 30.7823C111.207 30.5722 111.172 30.3627 111.097 30.1663C111.022 29.9699 110.908 29.7908 110.762 29.6396C110.616 29.4885 110.441 29.3685 110.247 29.2869C110.054 29.2054 109.845 29.1639 109.635 29.165H106.43C105.54 29.165 104.809 29.3368 104.809 29.5426C104.809 29.7504 105.54 29.9222 106.43 29.9222H108.851C109.061 29.9214 109.269 29.963 109.463 30.0447C109.656 30.1264 109.832 30.2464 109.978 30.3974C110.124 30.5485 110.238 30.7276 110.313 30.9238C110.388 31.1201 110.422 31.3295 110.414 31.5395L110.285 35.2795C110.254 36.1705 110.409 37.603 110.63 38.4651L111.229 40.8036C111.451 41.6667 111.865 42.7945 112.154 43.3089C112.439 43.8264 112.514 43.5357 112.316 42.6666L111.347 38.3942C111.152 37.5261 111.015 36.0866 111.045 35.1966L111.199 30.7823V30.7823ZM106.701 12.3938C106.701 12.6016 107.431 12.7734 108.322 12.7734H111.384C112.274 12.7734 113.372 12.5736 113.823 12.3329C114.274 12.0892 113.913 11.9024 113.023 11.9154L108.321 11.9913C107.431 12.0043 106.701 12.1861 106.701 12.3938V12.3938ZM127.545 16.2807C127.524 15.3887 127.335 14.6604 127.124 14.6604C126.919 14.6604 126.748 15.3887 126.748 16.2807V19.9768C126.748 20.8678 126.945 21.1685 127.189 20.6511C127.43 20.1296 127.61 18.9768 127.589 18.0848L127.545 16.2807ZM131.232 30.066C131.213 30.4991 131.028 30.9081 130.716 31.209C130.404 31.5099 129.988 31.6797 129.555 31.6833H127.105C126.215 31.6833 125.484 32.4125 125.484 33.3046V35.74C125.484 36.632 125.653 37.3593 125.864 37.3593C126.073 37.3593 126.243 36.631 126.243 35.74V34.0608C126.243 33.1707 126.971 32.4435 127.864 32.4435H130.289C131.179 32.4435 131.932 31.7153 131.962 30.8232L131.988 30.0391C132.019 29.148 131.874 28.4148 131.666 28.4058C131.458 28.3988 131.261 29.121 131.231 30.0101L131.232 30.066V30.066ZM162.246 31.7522C162.072 32.0839 162.008 33.0798 162.102 33.9659L162.263 35.4923C162.356 36.3783 162.331 37.8248 162.21 38.7068L161.144 46.4246C161.024 47.3057 161.131 48.0169 161.385 48.0059C161.642 47.9939 161.941 47.2607 162.05 46.3767L162.998 38.7218C163.107 37.8368 163.119 36.3883 163.023 35.5032L162.733 32.7602C162.638 31.8751 162.419 31.4206 162.246 31.7522V31.7522ZM139.483 43.6646C139.483 43.8723 140.212 44.0432 141.103 44.0432H141.522C142.412 44.0432 143.141 43.8733 143.141 43.6646C143.141 43.4578 142.412 43.287 141.522 43.287H141.103C140.212 43.287 139.483 43.4578 139.483 43.6646ZM142.385 13.4008C142.802 13.6085 143.852 13.9402 144.721 14.136L150.961 15.2498C151.78 15.6034 152.517 15.7363 152.598 15.5445C152.682 15.3547 152.058 14.9681 151.213 14.6884L143.219 13.3258C142.344 13.158 141.969 13.193 142.385 13.4008ZM142.256 20.3993C142.603 20.1556 142.159 19.9838 141.269 20.0167L140.977 20.0267C140.084 20.0587 139.358 20.2555 139.358 20.4633C139.358 20.671 139.868 20.8409 140.49 20.8409C141.116 20.8409 141.909 20.6421 142.256 20.3993V20.3993ZM177.509 13.7784C177.562 14.2639 178.334 14.6614 179.228 14.6614H179.934C180.824 14.6614 181.665 14.7004 181.795 14.7453C181.932 14.7923 182.434 15.1489 182.611 15.042C182.788 14.9361 182.658 14.6385 182.322 14.3827C181.986 14.127 180.944 13.9122 180.054 13.9092H179.904C179.012 13.9082 178.203 13.181 178.103 12.2979L177.11 3.36945C177.01 2.48139 176.759 1.77714 176.554 1.80212C176.349 1.82509 176.257 2.5683 176.357 3.45336L177.145 10.5318C177.245 11.4169 176.592 12.1401 175.704 12.1401H173.134C172.243 12.1401 171.515 12.3099 171.515 12.5157C171.515 12.7235 172.244 12.8933 173.134 12.8933H175.788C176.68 12.8933 177.452 13.2919 177.509 13.7784V13.7784ZM176.425 31.5455C176.485 32.4335 176.172 33.7921 175.728 34.5642L175.051 35.3264C174.844 36.1935 174.84 36.9367 175.043 36.9807C175.247 37.0236 175.637 36.3663 175.907 35.5172C175.907 35.5172 176.011 35.1476 176.339 34.6811C176.664 34.2116 177.026 33.828 177.136 33.828C177.247 33.828 177.291 33.0998 177.23 32.2127L176.95 28.1301C176.933 27.9228 176.959 27.7141 177.027 27.5177C177.096 27.3212 177.205 27.1412 177.347 26.9892C177.489 26.8371 177.661 26.7165 177.852 26.635C178.044 26.5535 178.25 26.5129 178.458 26.5158H184.526C185.417 26.5158 186.143 26.345 186.143 26.1372C186.143 25.9304 185.415 25.7576 184.526 25.7576H177.648C176.758 25.7576 176.076 26.4858 176.137 27.3739L176.425 31.5455V31.5455ZM189.167 28.4078C189.167 28.6156 189.895 28.7864 190.786 28.7864H194.86C195.752 28.7864 196.791 28.6156 197.173 28.4078C197.56 28.199 197.142 28.0272 196.252 28.0272L190.784 28.0292C189.896 28.0292 189.167 28.2 189.167 28.4078V28.4078ZM192.665 17.7292C192.892 17.916 193.805 18.0698 194.694 18.0698H195.87C196.762 18.0698 197.49 17.899 197.49 17.6922C197.49 17.4824 196.761 17.3226 195.87 17.3356L193.877 17.3646C192.983 17.3775 192.44 17.5414 192.665 17.7292ZM171.892 44.2949C171.874 44.5017 172.59 44.7244 173.478 44.7874L182.483 45.4357C183.369 45.5006 184.108 45.3827 184.126 45.1749C184.14 44.9682 183.426 44.7474 182.536 44.6825L173.537 44.0362C172.649 43.9722 171.908 44.0881 171.892 44.2949ZM224.452 28.1371C223.561 28.1481 222.835 28.3249 222.836 28.5327C222.837 28.7404 223.567 28.9033 224.457 28.8953L235.466 30.118C236.352 30.2039 237.139 30.115 237.208 29.9202C237.282 29.7274 236.615 29.4926 235.731 29.4027L224.452 28.1371ZM258.776 14.156C258.581 14.2249 258.46 15.0091 258.502 15.9001L259.508 20.9727C259.126 21.7779 258.965 22.5121 259.153 22.606C259.341 22.6989 259.81 22.1185 260.197 21.3163L259.215 15.6474C259.168 14.7573 258.973 14.087 258.776 14.156ZM252.933 4.70003C252.136 4.70003 251.278 4.02075 251.023 3.19463C250.769 2.36552 250.4 1.73818 250.2 1.80012C250.003 1.86105 250.054 2.60826 250.315 3.45935L250.453 3.90987C250.713 4.76197 251.581 5.45822 252.383 5.45822C253.183 5.45822 254.077 6.14549 254.363 6.99059L254.74 8.08143C255.029 8.92453 255.427 9.55886 255.62 9.49093C255.817 9.425 255.741 8.67979 255.452 7.83769L254.902 6.2324C254.614 5.3903 253.727 4.70003 252.933 4.70003ZM282.84 26.6417C281.95 26.6417 281.223 26.8115 281.223 27.0203C281.223 27.2301 281.951 27.4009 282.84 27.4009H293.221C294.114 27.4009 294.84 27.2301 294.84 27.0203C294.84 26.8115 294.112 26.6417 293.221 26.6417H282.84ZM290.678 8.8616C290.876 8.80666 290.853 8.05846 290.616 7.20037L289.576 3.38943C289.345 2.52934 288.986 1.87104 288.784 1.92698C288.587 1.98093 288.612 2.72913 288.847 3.58821L289.886 7.39716C290.123 8.25625 290.479 8.91554 290.678 8.8616" fill="#020303"/>
<path d="M39.0471 8.63961H42.4395C43.3296 8.63961 43.3426 8.49776 42.4685 8.32894L41.2987 8.09919C40.4237 7.92837 39.7544 8.0862 39.8063 8.45281L39.0471 8.63961V8.63961ZM20.0683 42.2119C19.7237 41.8303 18.7158 41.6065 17.8337 41.7134L15.8768 41.9552C14.9927 42.0621 14.9927 42.2359 15.8778 42.3418L19.0894 42.7194C19.9754 42.8223 20.416 42.5945 20.0683 42.2119V42.2119ZM52.1602 46.3755C51.9194 45.9939 50.9944 45.7421 50.1054 45.8191L45.8949 46.1747C45.0068 46.2486 45.0068 46.3775 45.8929 46.4584L50.9904 46.9199C51.8775 47.0008 52.4059 46.7561 52.1602 46.3755V46.3755ZM91.0019 44.7991C90.898 44.4535 91.5393 44.1908 92.4313 44.2158L93.4802 44.2477C94.3703 44.2707 94.4002 44.4975 93.5432 44.7462L92.743 44.976C91.8889 45.2247 91.1048 45.1448 91.0019 44.7991V44.7991ZM135.448 42.3408C135.38 41.8203 134.603 41.4967 133.721 41.6225L130.745 42.0471C129.867 42.1729 129.867 42.3887 130.744 42.5276L133.971 43.035C134.852 43.1739 135.516 42.8612 135.448 42.3408ZM139.166 44.1418C139.121 43.6224 139.811 43.2828 140.694 43.3827L140.787 43.3936C141.674 43.4955 141.742 43.8931 140.938 44.2797L140.709 44.3886C139.905 44.7722 139.211 44.6613 139.166 44.1418V44.1418ZM111.051 35.4681C110.946 34.7049 110.747 34.6479 110.608 35.3422C110.469 36.0355 110.564 37.3011 110.82 38.1532L111.024 38.8325C111.28 39.6856 111.44 39.6556 111.377 38.7696L111.356 38.4709C111.28 37.4675 111.178 36.4662 111.051 35.4681V35.4681ZM125.802 36.0345C125.628 35.7228 125.511 36.1943 125.543 37.0844L125.556 37.5069C125.588 38.397 125.726 38.5578 125.868 37.8645C126.005 37.1703 125.977 36.3471 125.802 36.0345ZM95.9186 35.7188C95.8827 34.9546 95.7428 34.9546 95.606 35.7188C95.4671 36.483 95.584 37.7986 95.8627 38.6437L96.0984 39.3519C96.3791 40.197 96.491 40.1681 96.3442 39.291L96.2483 38.7056C96.0885 37.7162 95.9785 36.7193 95.9186 35.7188V35.7188ZM71.8942 36.2872C71.7553 35.9745 71.5256 36.0315 71.3907 36.4131C71.2519 36.7947 71.3957 37.5019 71.7074 37.9874C72.0191 38.4719 72.2488 38.4179 72.2119 37.8615C72.1759 37.3081 72.034 36.5999 71.8942 36.2872V36.2872ZM55.123 35.7528C54.9512 34.9876 54.6396 35.0725 54.4318 35.9396V35.9426C54.223 36.8076 54.5646 38.0284 55.187 38.6527C55.8103 39.278 56.121 39.1931 55.8802 38.4649C55.5908 37.5716 55.3382 36.6668 55.123 35.7528V35.7528ZM24.9252 34.6489C24.6824 34.3373 25.2109 34.1455 26.0989 34.2224L28.6672 34.4452C29.5552 34.5221 29.5572 34.6769 28.6752 34.7918L26.973 35.0116C26.0909 35.1244 25.1689 34.9616 24.9252 34.6489ZM162.459 35.1784C162.586 34.2973 162.837 34.2873 163.028 35.1574L163.104 35.522C163.292 36.3931 163.258 37.8106 163.03 38.6717L162.722 39.8284C162.493 40.6865 162.286 40.6635 162.261 39.7725L162.229 38.7256C162.203 37.8346 162.285 36.3851 162.412 35.502L162.459 35.1784V35.1784ZM152.346 15.7341C152.346 16.1157 151.742 16.0148 151.005 15.5173L150.53 15.1946C149.792 14.6932 149.897 14.4534 150.764 14.6612L150.768 14.6622C151.637 14.872 152.346 15.3515 152.346 15.7341V15.7341ZM201.588 41.3928C201.691 41.0461 201.048 40.7844 200.156 40.8084L198.982 40.8424C198.093 40.8683 198.067 41.0851 198.922 41.3278L199.839 41.5846C200.699 41.8243 201.484 41.7374 201.588 41.3928V41.3928ZM195.281 36.0355C195.037 35.515 194.865 35.8187 194.899 36.7098L194.905 36.8756C194.94 37.7646 195.136 38.1522 195.343 37.7367C195.554 37.3201 195.526 36.5559 195.281 36.0355V36.0355ZM217.667 42.9701C217.806 42.5885 217.191 42.3358 216.306 42.4067L213.229 42.6534C212.34 42.7234 212.334 42.8902 213.215 43.025L215.814 43.4206C216.692 43.5545 217.526 43.3517 217.667 42.9701V42.9701ZM214.514 36.2243C214.374 35.8067 214.177 35.7787 214.074 36.1603C213.97 36.5429 214 37.394 214.136 38.0543C214.275 38.7126 214.474 38.7416 214.574 38.1163C214.68 37.4919 214.653 36.6408 214.514 36.2243ZM259.215 22.7946C258.903 22.6907 258.932 21.9525 259.279 21.1553C259.624 20.3571 259.88 20.4311 259.844 21.3221L259.842 21.3661C259.81 22.2561 259.527 22.9004 259.215 22.7946ZM238.029 42.087C238.342 41.7064 239.318 41.5017 240.198 41.6335L244.561 42.2878C245.443 42.4197 245.436 42.5495 244.547 42.5735L239.081 42.7333C238.191 42.7613 237.72 42.4686 238.029 42.087V42.087ZM279.388 42.087C279.771 41.5666 280.799 41.2779 281.675 41.4487L285.684 42.2219C286.557 42.3907 286.545 42.5695 285.656 42.6235L280.314 42.9361C279.421 42.9921 279.008 42.6085 279.388 42.087V42.087ZM281.032 26.9551C280.858 26.3658 281.434 25.9912 282.315 26.122L285.921 26.6545C286.801 26.7853 286.805 27.0241 285.928 27.1849L282.942 27.7333C282.066 27.8941 281.208 27.5445 281.032 26.9551V26.9551ZM276.803 9.42877C276.528 9.18503 276.272 8.25802 276.242 7.36897L276.235 7.20014C276.205 6.31009 276.363 6.28812 276.59 7.1482L276.895 8.30397C277.122 9.16506 277.081 9.67251 276.803 9.42877ZM236.708 30.5513L234.429 29.6383C233.602 29.3076 233.649 29.1048 234.536 29.1878L236.958 29.4145L236.708 30.5513ZM150.14 37.8615C150.311 37.378 150.311 36.6119 150.14 36.1593C149.968 35.7098 149.097 35.3432 148.207 35.3432H147.281C146.39 35.3432 145.407 35.7678 145.095 36.2892C144.783 36.8096 145.229 37.435 146.086 37.6787L148.271 38.3021C149.128 38.5448 149.968 38.346 150.14 37.8615" fill="#020303"/>
<path d="M148.627 36.6008C148.035 35.9785 148.065 35.466 148.69 35.466C149.314 35.466 150.08 35.7787 150.392 36.1603C150.703 36.5429 150.572 37.4729 150.099 38.2281L149.925 38.5088C149.45 39.262 149.208 39.3989 149.38 38.8085C149.558 38.2171 149.216 37.2262 148.627 36.6008V36.6008ZM91.5668 8.23003C91.6367 7.74554 92.3989 7.52378 93.262 7.74155L93.6505 7.83844C94.5156 8.05621 94.5116 8.39785 93.6446 8.60063L93.0182 8.74648C92.1511 8.94926 91.4968 8.71751 91.5668 8.23003V8.23003ZM50.7742 15.1017C50.5994 15.4134 49.7523 15.4973 48.8842 15.2895L48.3757 15.1666C47.5117 14.9589 47.5276 14.7451 48.4197 14.6912L49.4696 14.6292C50.3596 14.5773 50.948 14.789 50.7742 15.1017V15.1017ZM17.9252 29.0359C18.066 28.6183 17.4616 28.4175 16.5886 28.5894L15.233 28.8531C14.3589 29.0239 14.3629 29.2766 15.242 29.4135L16.0731 29.5443C16.9512 29.6812 17.7863 29.4534 17.9252 29.0359Z" fill="#020303"/>
<path d="M20.4475 42.3409C20.1708 42.0292 20.1478 41.0722 20.4005 40.2201L20.7482 39.0384C20.9989 38.1833 21.1687 38.2123 21.1278 39.1013L21.0259 41.288C20.9849 42.181 20.7252 42.6505 20.4475 42.3409V42.3409ZM51.9729 46.5004C51.6952 46.3266 51.6952 45.5624 51.9729 44.7983C52.2507 44.0351 52.4774 44.141 52.4774 45.032V45.1958C52.4774 46.0869 52.2507 46.6743 51.9729 46.5004ZM80.4087 27.5247C80.3747 26.9692 80.6115 27.192 80.9381 28.0231L81.1379 28.5386C81.4656 29.3677 81.4486 29.7053 81.101 29.2898C80.7543 28.8732 80.4427 28.0791 80.4087 27.5247V27.5247ZM238.412 42.5926C238.722 42.3489 238.777 41.4498 238.532 40.5937L238.16 39.2931C237.916 38.437 237.732 38.465 237.756 39.3551L237.807 41.4149C237.826 42.3049 238.099 42.8354 238.412 42.5926ZM280.023 42.3389C280.474 42.0951 280.539 41.2351 280.164 40.4279L278.494 36.8118C278.121 36.0006 277.95 36.0546 278.112 36.9326L278.908 41.1881C279.07 42.0652 279.573 42.5826 280.023 42.3389V42.3389ZM281.787 26.8933C281.614 26.5457 281.15 26.9163 280.758 27.7155L279.034 31.2387C278.64 32.0388 278.75 32.1048 279.276 31.3875L281.147 28.8283C281.674 28.112 281.962 27.242 281.787 26.8933Z" fill="#282729"/>
<path d="M254.737 9.61798L254.807 7.58215C254.836 6.6901 255.045 6.66812 255.27 7.5292L255.871 9.86971" fill="#020303"/>
<path d="M14.4601 43.2218C13.663 42.979 13.7199 42.8372 14.586 42.9091C15.5341 42.9863 16.4799 43.0909 17.422 43.2228C18.1142 43.3267 18.0583 43.4695 17.2961 43.5365C16.5329 43.6064 15.2573 43.4645 14.4601 43.2218V43.2218ZM54.3786 38.7565C53.7503 38.1272 53.6584 38.2041 54.1748 38.9284L54.8142 39.8234C55.3316 40.5486 56.1537 41.3957 56.6402 41.7094C57.1247 42.0211 57.0977 41.7673 56.5783 41.142C55.909 40.3567 55.2109 39.5963 54.4855 38.8624L54.3786 38.7565V38.7565ZM70.6353 36.9814C70.4255 36.9814 70.5404 37.5758 70.8871 38.306C71.2337 39.0342 71.4035 39.0342 71.2657 38.306C71.1268 37.5748 70.8431 36.9814 70.6353 36.9814ZM93.8416 45.0518C93.1474 44.9819 93.2982 44.7961 94.1743 44.6343L95.1422 44.4595C96.0183 44.2996 96.3679 44.3975 95.9164 44.6752C95.4699 44.952 94.5339 45.1208 93.8416 45.0518V45.0518ZM110.041 38.305C109.729 37.8545 109.615 38.1372 109.788 38.9344C109.961 39.7315 110.416 40.9532 110.798 41.6455C111.176 42.3407 111.325 42.1979 111.123 41.3318L110.977 40.7045C110.774 39.8344 110.354 38.7545 110.041 38.305V38.305ZM163.635 39.6905C163.53 39.1701 163.273 39.255 163.067 39.8783C162.859 40.5027 162.688 41.6924 162.688 42.5275C162.688 43.3586 162.919 43.3487 163.203 42.5056L163.313 42.1729C163.592 41.3288 163.739 40.211 163.635 39.6905V39.6905ZM145.777 36.2182C145.602 35.6868 145.199 35.7777 144.882 36.419C144.566 37.0603 144.965 37.9035 145.764 38.294L145.804 38.311C146.601 38.6996 146.998 38.6057 146.678 38.1002C146.362 37.5978 145.953 36.7507 145.777 36.2182V36.2182ZM175.737 45.3026C174.941 45.0958 175.017 44.925 175.907 44.925H176.2C177.09 44.925 178.471 45.1517 179.271 45.4294C180.067 45.7072 179.995 45.883 179.103 45.819L178.806 45.7981C177.918 45.7331 176.538 45.5114 175.737 45.3026ZM195.978 38.305C195.912 37.9924 195.654 38.2771 195.41 38.9344C195.165 39.5927 195.223 39.8494 195.537 39.5027C195.847 39.1551 196.049 38.6147 195.978 38.305V38.305ZM215.447 37.6168C215.377 37.3071 215.122 37.5898 214.88 38.2491C214.636 38.9064 214.694 39.1651 215.007 38.8155C215.317 38.4678 215.518 37.9294 215.447 37.6168ZM212.323 43.4655C211.446 43.2977 211.458 43.0889 212.343 43.002L213.03 42.9361C213.916 42.8512 215.01 43.007 215.463 43.2867C215.914 43.5634 215.772 43.7912 215.147 43.7912C214.523 43.7912 213.297 43.6533 212.421 43.4845L212.323 43.4655ZM240.935 43.4126C240.136 43.4805 240.136 43.3397 240.935 43.0969C241.731 42.8532 243.112 42.7163 243.997 42.7923L245.184 42.8961C246.07 42.9711 246.07 43.0769 245.18 43.1269L243.999 43.1928C243.112 43.2458 241.73 43.3437 240.935 43.4126Z" fill="#595558"/>
<path d="M259.402 23.0477C258.986 23.2225 258.366 24.0356 258.024 24.8588L258.007 24.8927C257.666 25.7159 257.824 25.8088 258.361 25.0985L259.176 24.0227C259.718 23.3114 259.819 22.8729 259.402 23.0477" fill="#282729"/>
<path d="M290.742 9.24007C290.359 9.24007 289.977 8.51385 289.89 7.62779L289.825 6.94352C289.739 6.05446 289.971 5.99453 290.336 6.80566L290.772 7.76364C291.137 8.57578 291.125 9.24007 290.742 9.24007ZM171.578 12.8323C171.545 12.3817 172.245 12.0381 173.135 12.0681L173.677 12.085C174.568 12.116 174.622 12.4177 173.8 12.7583L173.136 13.03C172.314 13.3717 171.612 13.2818 171.578 12.8323V12.8323ZM127.254 14.4715C126.904 14.2977 126.714 14.8781 126.829 15.7611L126.918 16.4614C127.034 17.3444 127.29 17.3574 127.493 16.4894L127.519 16.3665C127.721 15.4984 127.601 14.6463 127.254 14.4715V14.4715ZM87.5922 26.7674C87.4883 26.4208 88.1326 26.1381 89.0236 26.1381H92.47C93.36 26.1381 93.374 26.2809 92.5009 26.4538L89.3713 27.0781C88.4982 27.2529 87.695 27.114 87.5922 26.7674V26.7674ZM17.2011 33.701C17.254 33.4413 16.5677 33.2265 15.6757 33.2265H14.8486C13.9555 33.2265 13.9355 33.4004 14.8006 33.6121L15.5328 33.7909C16.3969 34.0037 17.1471 33.9608 17.2011 33.701" fill="#020303"/>
<path d="M4.66285 36.5849C3.7718 36.5959 3.18542 36.7448 3.36124 36.9176C3.53605 37.0924 4.40712 37.2332 5.29717 37.2332H11.8961C12.7842 37.2332 13.6563 37.0634 13.8301 36.8547C14.0039 36.6459 13.4145 36.485 12.5245 36.495L4.66285 36.5849V36.5849ZM34.552 36.5849C33.659 36.5959 33.0716 36.7448 33.2474 36.9176C33.4202 37.0924 34.2893 37.2332 35.1794 37.2332H41.7783C42.6684 37.2332 43.5395 37.0634 43.7143 36.8547C43.8881 36.6459 43.2987 36.485 42.4097 36.495L34.552 36.5849V36.5849ZM51.3551 36.4541C50.4641 36.4811 49.7838 36.6489 49.8398 36.8227C49.8997 36.9975 50.6759 37.1383 51.5669 37.1383H51.6808C52.5718 37.1383 53.349 36.9675 53.41 36.7598C53.4679 36.55 52.7886 36.4051 51.8976 36.4331L51.3551 36.4541V36.4541ZM21.3731 21.7947C20.483 21.8247 19.8027 21.9915 19.8617 22.1643C19.9236 22.3381 20.6998 22.481 21.5898 22.481H21.7017C22.5918 22.481 23.3679 22.3101 23.4299 22.1024C23.4888 21.8926 22.8085 21.7467 21.9185 21.7757L21.3731 21.7947V21.7947ZM33.7619 21.7947C32.8728 21.8247 32.1935 21.9915 32.2515 22.1643C32.3134 22.3381 33.0886 22.481 33.9776 22.481H34.0905C34.9816 22.481 35.7577 22.3101 35.8177 22.1024C35.8786 21.8926 35.1963 21.7467 34.3053 21.7757L33.7619 21.7947V21.7947ZM8.98125 23.7746C8.0922 23.8065 7.40893 23.9744 7.46187 24.1502C7.51282 24.323 8.23804 24.4638 9.06716 24.4638C9.89628 24.4638 10.6185 24.293 10.6705 24.0862C10.7244 23.8785 10.0401 23.7346 9.15107 23.7686L8.98125 23.7746ZM23.8324 28.8172C22.9404 28.8342 22.3031 28.988 22.412 29.1628C22.5238 29.3377 23.343 29.4765 24.232 29.4765H27.1929C28.0849 29.4765 28.903 29.3077 29.0119 29.1009C29.1228 28.8931 28.4835 28.7363 27.5934 28.7513L23.8324 28.8172V28.8172ZM17.0227 7.25617C16.1306 7.27215 15.4933 7.42699 15.6042 7.5998C15.7131 7.77262 16.5322 7.91447 17.4213 7.91447H20.3861C21.2782 7.91447 22.0963 7.74465 22.2052 7.53687C22.3131 7.32809 21.6737 7.17026 20.7837 7.18524L17.0227 7.25617V7.25617ZM68.5648 36.4541C67.6758 36.4811 66.9945 36.6489 67.0544 36.8227C67.1154 36.9975 67.8905 37.1383 68.7806 37.1383H68.8915C69.7815 37.1383 70.5607 36.9675 70.6206 36.7598C70.6806 36.55 70.0003 36.4051 69.1072 36.4331L68.5648 36.4541V36.4541ZM97.9755 36.4491C97.0845 36.4801 96.4002 36.6489 96.4551 36.8237C96.5081 36.9985 97.2313 37.1403 98.0604 37.1403C98.8925 37.1403 99.6128 36.9695 99.6647 36.7598C99.7187 36.552 99.0304 36.4091 98.1453 36.4411L97.9755 36.4491V36.4491ZM74.051 36.4761C73.1609 36.497 72.5086 36.6509 72.6055 36.8247C72.7004 36.9995 73.5076 37.1383 74.3976 37.1383H76.6113C77.5023 37.1383 78.3085 36.9675 78.4043 36.7608C78.4992 36.553 77.8489 36.3951 76.9579 36.4151L74.051 36.4761ZM89.6554 36.4781C88.7633 36.496 88.124 36.6499 88.2309 36.8247C88.3388 36.9995 89.1549 37.1394 90.045 37.1394H92.835C93.727 37.1394 94.5422 36.9685 94.6511 36.7608C94.7569 36.553 94.1156 36.3941 93.2256 36.4131L89.6554 36.4781ZM106.87 36.4681C105.98 36.49 105.315 36.6509 105.391 36.8237C105.47 36.9985 106.262 37.1374 107.152 37.1374H108.357C109.248 37.1374 110.041 36.9665 110.121 36.7588C110.2 36.551 109.535 36.3981 108.643 36.4211L106.87 36.4681ZM141.008 36.4681C140.118 36.49 139.452 36.6509 139.532 36.8237C139.612 36.9985 140.405 37.1374 141.296 37.1374H142.497C143.386 37.1374 144.181 36.9665 144.261 36.7588C144.341 36.551 143.677 36.3981 142.787 36.4211L141.008 36.4681V36.4681ZM165.313 36.4621C164.423 36.486 163.75 36.6499 163.82 36.8227C163.891 36.9975 164.674 37.1383 165.569 37.1383H166.268C167.159 37.1383 167.945 36.9675 168.015 36.7598C168.087 36.551 167.416 36.4011 166.525 36.4271L165.313 36.4621ZM177.422 36.487C176.531 36.5 175.924 36.6499 176.072 36.8237C176.222 36.9985 177.073 37.1374 177.963 37.1374H183.253C184.143 37.1374 184.994 36.9665 185.146 36.7588C185.298 36.551 184.691 36.3891 183.799 36.4011L177.422 36.487V36.487ZM192.363 36.4571C191.472 36.484 190.796 36.6499 190.858 36.8247C190.92 36.9975 191.7 37.1394 192.586 37.1394H192.84C193.732 37.1394 194.51 36.9685 194.571 36.7608C194.634 36.552 193.957 36.4051 193.063 36.4321L192.363 36.4571ZM197.756 36.4761C196.861 36.497 196.215 36.6509 196.311 36.8247C196.407 36.9995 197.216 37.1383 198.106 37.1383H200.374C201.265 37.1383 202.074 36.9675 202.172 36.7608C202.265 36.553 201.617 36.3951 200.726 36.4151L197.756 36.4761V36.4761ZM209.67 36.4701C208.778 36.491 208.118 36.6499 208.2 36.8237C208.284 36.9985 209.08 37.1394 209.971 37.1394H211.396C212.286 37.1394 213.083 36.9685 213.165 36.7608C213.247 36.553 212.587 36.3981 211.695 36.4201L209.67 36.4701V36.4701ZM216.764 36.4621C215.872 36.488 215.2 36.6509 215.266 36.8247C215.334 36.9985 216.119 37.1394 217.012 37.1394H217.601C218.491 37.1394 219.275 36.9685 219.34 36.7608C219.407 36.552 218.735 36.4031 217.845 36.4291L216.764 36.4621ZM226.791 36.491C225.9 36.501 225.321 36.6499 225.507 36.8237C225.693 36.9985 226.572 37.1394 227.462 37.1394H234.761C235.652 37.1394 236.532 36.9685 236.718 36.7598C236.903 36.552 236.325 36.3891 235.436 36.3991L226.791 36.491ZM243.811 36.491C242.919 36.501 242.342 36.6499 242.528 36.8237C242.711 36.9985 243.592 37.1394 244.485 37.1394H251.782C252.674 37.1394 253.554 36.9685 253.741 36.7598C253.928 36.552 253.35 36.3891 252.461 36.3991L243.811 36.491V36.491ZM286.843 36.491C285.953 36.501 285.376 36.6499 285.566 36.8237C285.75 36.9985 286.629 37.1394 287.523 37.1394H294.812C295.704 37.1394 296.585 36.9685 296.771 36.7598C296.957 36.552 296.379 36.3891 295.491 36.3991L286.843 36.491V36.491ZM271.048 7.81957C270.158 7.83755 269.515 7.99139 269.619 8.1662C269.723 8.34002 270.539 8.47987 271.429 8.47987H274.113C275.004 8.47987 275.819 8.31005 275.924 8.10127C276.028 7.89349 275.384 7.73666 274.494 7.75364L271.048 7.81957ZM257.617 7.82456C256.729 7.83955 256.098 7.99139 256.217 8.1662C256.339 8.34002 257.165 8.47987 258.058 8.47987H261.575C262.469 8.47987 263.294 8.31005 263.414 8.10227C263.532 7.89349 262.902 7.73666 262.011 7.74964L257.617 7.82456V7.82456ZM250.806 7.81158C249.916 7.83256 249.254 7.99338 249.34 8.1652C249.422 8.33902 250.217 8.47987 251.111 8.47987H252.624C253.516 8.47987 254.311 8.31005 254.397 8.10127C254.481 7.89249 253.824 7.74065 252.93 7.76163L250.806 7.81158ZM253.08 21.7258C252.188 21.7417 251.55 21.8966 251.658 22.0704C251.763 22.2442 252.581 22.3831 253.47 22.3831H256.322C257.211 22.3831 258.027 22.2142 258.136 22.0075C258.245 21.7987 257.604 21.6429 256.712 21.6578L253.08 21.7258V21.7258ZM211.563 6.86958C210.671 6.89056 210.01 7.04939 210.095 7.2232C210.178 7.39502 210.974 7.53687 211.866 7.53687H213.377C214.269 7.53687 215.064 7.36705 215.148 7.15927C215.23 6.95149 214.57 6.79766 213.678 6.82063L211.563 6.86958ZM221.206 6.86958C220.314 6.89056 219.655 7.04939 219.739 7.2232C219.821 7.39502 220.621 7.53687 221.51 7.53687H223.026C223.916 7.53687 224.713 7.36705 224.798 7.15927C224.877 6.95149 224.22 6.79766 223.326 6.82063L221.206 6.86958ZM215.031 12.9911C214.311 13.023 213.757 13.1948 213.8 13.3687C213.842 13.5435 214.4 13.6863 215.035 13.6863C215.67 13.6863 216.227 13.5145 216.266 13.3067C216.306 13.1009 215.749 12.9581 215.031 12.9911V12.9911ZM218.466 11.0052C217.575 11.0391 216.891 11.21 216.94 11.3838C216.991 11.5576 217.687 11.7004 218.487 11.7004C219.287 11.7004 219.982 11.5296 220.033 11.3208C220.083 11.1111 219.394 10.9682 218.504 11.0042L218.466 11.0052V11.0052ZM175.528 11.3838C174.637 11.4167 173.95 11.5866 174.001 11.7614C174.05 11.9352 174.746 12.078 175.547 12.078C176.348 12.078 177.043 11.9072 177.099 11.6994C177.152 11.4907 176.463 11.3468 175.576 11.3808L175.528 11.3838ZM186.309 21.4181C185.415 21.4461 184.737 21.6109 184.803 21.7857C184.865 21.9585 185.646 22.1014 186.536 22.1014H186.814C187.706 22.1014 188.486 21.9325 188.546 21.7248C188.608 21.515 187.932 21.3681 187.041 21.3941L186.309 21.4181ZM178.744 25.0322C177.853 25.0532 177.202 25.2071 177.299 25.3799C177.396 25.5547 178.201 25.6945 179.095 25.6945H181.304C182.194 25.6945 183.002 25.5237 183.097 25.3159C183.193 25.1062 182.542 24.9513 181.653 24.9713L178.744 25.0322ZM285.8 25.7884C284.909 25.8094 284.261 25.9633 284.358 26.1381C284.454 26.3109 285.264 26.4517 286.153 26.4517H288.36C289.252 26.4517 290.059 26.2809 290.157 26.0721C290.253 25.8644 289.603 25.7105 288.715 25.7285L285.8 25.7884V25.7884ZM107.723 28.6154C106.833 28.6394 106.162 28.8032 106.233 28.975C106.306 29.1469 107.093 29.2877 107.983 29.2877H108.85C109.74 29.2877 110.53 29.1179 110.603 28.9101C110.676 28.7023 110.009 28.5535 109.117 28.5765L107.723 28.6154V28.6154ZM92.5872 25.5877C91.6972 25.6116 91.0279 25.7755 91.0998 25.9473C91.1718 26.1191 91.9579 26.2609 92.848 26.2609H93.7171C94.6091 26.2609 95.3983 26.0911 95.4712 25.8843C95.5441 25.6756 94.8748 25.5257 93.9838 25.5497L92.5872 25.5877ZM71.0212 25.303C70.1302 25.3269 69.4619 25.4908 69.5348 25.6636C69.6097 25.8374 70.3989 25.9792 71.2889 25.9792H72.156C73.0461 25.9792 73.8352 25.8084 73.9081 25.5986C73.9821 25.3909 73.3118 25.24 72.4207 25.264L71.0212 25.303ZM38.3989 13.7672C37.5089 13.7842 36.8596 13.9361 36.9575 14.1099C37.0574 14.2847 37.8655 14.4285 38.7576 14.4325L41.133 14.4415C42.0231 14.4455 42.8352 14.2767 42.9331 14.0689C43.034 13.8601 42.3877 13.7023 41.4966 13.7163L38.3989 13.7672V13.7672ZM99.6327 8.28507C98.7477 8.18718 98.0604 8.2571 98.1094 8.43891C98.1573 8.62271 98.9195 8.86945 99.8016 8.98832L100.664 9.1042C101.547 9.22507 102.351 9.16314 102.45 8.96735C102.549 8.77156 101.907 8.53181 101.02 8.43491L99.6327 8.28507ZM192.458 27.3837C191.566 27.4067 190.896 27.5695 190.97 27.7424C191.041 27.9152 191.832 28.056 192.72 28.056H193.588C194.478 28.056 195.266 27.8862 195.34 27.6784C195.41 27.4706 194.742 27.3208 193.849 27.3448L192.458 27.3837V27.3837ZM219.694 24.7376C218.804 24.7615 218.135 24.9234 218.209 25.0972C218.281 25.269 219.07 25.4098 219.96 25.4098H220.828C221.72 25.4098 222.506 25.239 222.579 25.0312C222.65 24.8215 221.982 24.6746 221.093 24.6976L219.694 24.7376V24.7376ZM154.245 7.55185C153.355 7.56085 152.81 7.70969 153.039 7.8845C153.268 8.05732 154.181 8.19917 155.071 8.19917H164.662C165.552 8.19917 166.465 8.03035 166.692 7.81957C166.917 7.61179 166.375 7.44697 165.483 7.45596L154.245 7.55185V7.55185ZM121.81 7.64875C120.921 7.65674 120.382 7.80459 120.617 7.9774C120.852 8.15222 121.774 8.29207 122.663 8.29207H132.665C133.555 8.29207 134.475 8.12325 134.709 7.91347C134.944 7.70569 134.405 7.54187 133.515 7.54986L121.81 7.64875V7.64875ZM120.11 21.4441C119.219 21.457 118.594 21.6109 118.72 21.7847C118.846 21.9595 119.679 22.1024 120.57 22.1024H124.542C125.431 22.1024 126.264 21.9325 126.39 21.7248C126.516 21.517 125.891 21.3582 125.001 21.3711L120.11 21.4441V21.4441ZM128.807 21.4431C127.917 21.4561 127.285 21.6109 127.406 21.7847C127.527 21.9595 128.353 22.1024 129.244 22.1024H132.794C133.683 22.1024 134.511 21.9335 134.631 21.7258C134.752 21.516 134.121 21.3572 133.231 21.3721L128.807 21.4431V21.4431ZM147.442 34.655C146.551 34.685 145.871 34.8538 145.927 35.0256C145.984 35.1984 146.76 35.3413 147.651 35.3413H147.678C148.568 35.3413 149.344 35.1714 149.404 34.9627C149.465 34.7539 148.783 34.609 147.892 34.639L147.442 34.655V34.655ZM144.882 12.4856C143.997 12.3827 143.321 12.4526 143.383 12.6334C143.445 12.8212 144.216 13.07 145.098 13.1918L146.726 13.4186C147.609 13.5385 148.423 13.4805 148.537 13.2848C148.651 13.089 148.021 12.8472 147.135 12.7443L144.882 12.4856V12.4856ZM226.211 27.4307C225.325 27.3278 224.652 27.3947 224.717 27.5765C224.774 27.7613 225.552 28.0111 226.434 28.1339L228.055 28.3587C228.939 28.4796 229.752 28.4216 229.866 28.2268C229.98 28.033 229.35 27.7903 228.467 27.6894L226.211 27.4307V27.4307ZM223.265 12.9911C222.598 13.023 222.081 13.1948 222.12 13.3687C222.157 13.5435 222.672 13.6863 223.262 13.6863C223.856 13.6863 224.369 13.5145 224.407 13.3067C224.445 13.1009 223.932 12.9581 223.265 12.9911V12.9911ZM261.686 21.7278C260.795 21.7437 260.164 21.8956 260.282 22.0694C260.403 22.2432 261.228 22.3851 262.12 22.3851H265.643C266.532 22.3851 267.362 22.2142 267.479 22.0065C267.596 21.7987 266.966 21.6429 266.074 21.6548L261.686 21.7278V21.7278ZM292.892 7.81358C292.002 7.83355 291.343 7.99239 291.43 8.1662C291.516 8.34002 292.317 8.47987 293.206 8.47987H294.825C295.719 8.47987 296.518 8.31105 296.602 8.10127C296.69 7.89349 296.033 7.74165 295.141 7.76063L292.892 7.81358ZM152.926 36.489C152.036 36.501 151.442 36.6509 151.603 36.8247C151.769 36.9985 152.631 37.1383 153.521 37.1383H159.589C160.479 37.1383 161.341 36.9685 161.507 36.7608C161.671 36.553 161.075 36.3911 160.186 36.4031L152.926 36.489V36.489ZM113.205 36.493C112.314 36.502 111.763 36.6489 111.978 36.8227C112.193 36.9975 113.096 37.1383 113.988 37.1383H122.987C123.878 37.1383 124.784 36.9675 125 36.7578C125.216 36.55 124.662 36.3862 123.772 36.3951L113.205 36.493ZM127.96 36.4811C127.071 36.498 126.438 36.6509 126.556 36.8247C126.675 36.9985 127.5 37.1383 128.39 37.1383H131.855C132.745 37.1383 133.57 36.9675 133.69 36.7598C133.806 36.552 133.174 36.3941 132.284 36.4071L127.96 36.4811ZM57.7573 36.565C56.8673 36.5859 56.203 36.7458 56.2869 36.9186C56.3688 37.0934 57.163 37.2332 58.056 37.2332H59.5125C60.4025 37.2332 61.1987 37.0634 61.2806 36.8547C61.3645 36.6459 60.7042 36.495 59.8141 36.515L57.7573 36.565V36.565Z" fill="#E1DCD7"/>
</g>
<defs>
<clipPath id="clip0_110528_1339">
<rect width="300" height="49.8" fill="white"/>
</clipPath>
</defs>
</svg>
